<?xml version="1.0" encoding="UTF-8"?>
<svg id="a" data-name="Layer 1" xmlns="http://www.w3.org/2000/svg" viewBox="0 0 520 520">
  <defs>
    <style>
      .b {
        fill: #faff00;
      }
    </style>
  </defs>
  <rect x="77.72" y="77.72" width="364.55" height="364.55" rx="38.43" ry="38.43"/>
  <path class="b" d="m245.75,344.64l-1.21.08.4-.77c.42.15.66.41.81.69Zm-85.74-158.87c-4.41-.7-8.31-1.74-13.53.66-.95-.83-3.41-1.66-4.29-1.11l.32.28c-1.21.64-1.7-1.1-2.59,0l-.89,1.29c-.54-.28-1.83-.28-1.6-.83-.77.64-2.47-.28-2.51,1.38-.28-.01-.52-.04-.77-.07l-36.62,83.41,46.62,76.87c.2-.06.4-.11.59-.14v.37c1.3-.37,2.29-1.57,3.8-1.38-.66.56.07,1.56.38,2.02.33,1.08-1.57,1.89-1.22,2.56l1.02-.07c.87-.9,1.46-2.17,3-1.94.46-.92-.94-1.19-1.38-1.2,1.31-.55,3.45.37,4.02-.83-.54.09-.76-.1-.75-.46,0,.18,1.61-2.38,2.22-1.93-.27.7.07.41-.34,1.17.79.39,1.24-.02,1.77-.39,0-.04,0-.07,0-.11l.05.08c.28-.19.58-.36.98-.4-1.23,1.13,1.43-.2.62,1.04-.41-.11-.68-.57-1.1-.38-.41.47.89.33.14.81l-.64-1.07s-.03.02-.05.03c.04,1.49-1.9.21-1.63,2.07,2.8.35,3.27-1.46,5.6-2.49,1.09.09,1.84-.1,2.93.28-.14.06-.48.07-.34.3,2.26,1.17,1.57-.56,3.35.69.51-.73,1.44-1.04,2.41-1.13l-46.15-76.1,36.58-83.31Zm213.7-16.77l-.45.03c.2.15.42.26.66.32l-.21-.35Zm10.46,163.85c-.56.74-1.24,1.83-.45,2.47.02-.75.57-.74,1.19-.6-.19.25-.3.6-.57.74.19-.13.33-.21.47-.29l-.14.33-1.86.12c-.17-.09-.34-.19-.52-.31.03-.47.68-1.09.47-1.14-.83-.18-1.67.69-1.55,1.39-.18.06-.32.08-.45.1-.18-.39-.4-.81-.8-.85-.1-.14-.25-.26-.54-.29-.19,1.3-1.8.76-2.1,1.36.38.11.83.07,1.29,0,0,.01-.01.02-.02.03l-1.77.12c-.2-.22-.26-.4.54-.61-1.13-1.23-.84.27-1.42.67l-.61.04-.91-.57c.07-.94,1.4-.56,1.17-.89l-.61.16c.57-.74,2.92-.43,4.28-1.57l-2.9-.33c-3.54,1.35-8.12.37-11.05,2.61.04,0,.09-.02.13-.03-.05.09-.06.27-.08.63l-.15-.22-.56.74c-.75-.82-2.05-.91-3.19-1.53q.73.53.84,1.22c-.02.27-.05.48-.1.66l-1.07.07c.11-.35.38-.45-.25-.83.38.28.13.71-.27.86h-.14c-.45-.26-1.07-.36-1.37-.65l.19-.44c.1.04.2.11.29.15.1-.08-.05-.17-.22-.3l.12-.27c.24.24.54.33.24,0,.04-.1-.01-.21-.1-.31l36.94-84.15-48.34-79.71s0,0,0,0c1.22.57,3.23-.09,3.98-.54.13.03.33.03.65-.05l-.7-.38,2.5-.16c.59.53.98.23,1.41-.09l1.08-.07c.61.46,1.35,1.43,1.52.6.15.11.35-.09.55-.34l.46.13c-.19-.04-.34-.09-.46-.14.11-.15.22-.3.32-.42l.85-.06.96.06c.3.13.68-.02.99-.18h.04s.29.42.29.42c.57-.11.59.16.53.29-.04-.03-.07-.04-.1-.07-.02.19.06.15.1.07,2.09,1.44,3.02-1.01,5.25.21.31-.67-.3-.97-.55-1.3l2.15-.14-1.26,1.41c.94-.74,1.1-.74,1.66-1.44l1.95-.13c.74.47,1.29,1.01,1.12,1.72,1.78,0-.61-.89.24-1.47l.16.04,48.54,80.04-37.18,84.69c-.62-.29-1.17-.61-1.12-1.24Zm-31.23-160.87c-.55-.36-2.21.49-2.94.9.88-.31,3.11-.2,2.94-.9Zm19.28-2.3l-1.19.6,1.04,1.27c1.4-.56.02-.76.15-1.87Zm10.68,162.62c-1.15.13-2.55.7-3.06,1.26l.44.38c.91-.76,2.16-.49,2.62-1.63Zm-20.14-162.57l-.27.02.16.14c.05-.08.07-.1.1-.16Zm-10.75.96c-.03-.07-.03-.16-.03-.25l-2.83.19c.95.11,1.68-.16,2.87.06Zm-3.06.66c-.07-.18-.14-.46-.29-.69l-.78.05c.25.42.66.61,1.07.64Zm-25.25,4.55c-.13-.65.59-.93,1.04-1.09l-.19-.32c-.1-.02-.22-.04-.36-.06l.28-.07-.39-.64c-.25.07-.52.15-.83.27,1.8-.32-.67,1.38.45,1.91Zm48.3,76.84l-36.56,83.26c-3.11-.04-5.75.82-8.91,1.4-1.22.18-.81-1.01-1.41-1.4-2.7,0-3.25,1.76-5.79,2.27.32-.49.84-1.83-.27-1.82-.18.45-.27,1.15-.98.92l.32-.49c-.68-.64-1.25.05-2.59-.16-2.33.18-4.48,1.4-6.29,3.2-2.07-.02.11-1.64-.31-1.95,1.49.46.99-.33,1.27-.88.2-.12.39-.26.54-.39-.31.08-.45.22-.54.39-.74.48-1.65.8-2.12-.25-1.07.14-1.55.12-2.57.92.51-.4,1.01.15.54.68-.9-.32-3.11.24-3.07-1.12-5.06.6-10.76.69-16.2,1.11-.87.76.71.22.24.75-1.27,1-1.09-.4-2.1.39l.39-.77c-1.6,0-3.19,1.47-4.68,2.25.2-.86-1.31-.61-.06-1.2-.74.19-1.9-3.51-2.43-2.7l1.08,3.45c-.02.35-1.09.2-.97.43-.7-.65-1.56-1.41-2.02-1.37-.28-.87.87-.76,1.5-.78,0-1.48-2.17-.81-1.35-2.22-1.33.33.24.74-.52,1.34l-1.19-.24.94.44c-.95.51-1.21,1.65-2.57.92l-1.26,1.53c-.21-1.16-1-.15-1.71-.38l.39-.77c-.92.1-1.29-.08-1.9-.47.45-1.06.85.19,1.01-.79l-1.04-.28c.05.66-.56,1.22.19,1.57-.86,1.29-1.31,2.35-3.68,2.4-1.14-1.06,1.08-1.08.56-2.16-2.48-.32-2.8,3.13-4.25,3.09-1.86-.34-1.68.69-3.53.89.54-.81-1.35-.74-1.74-1.45l.68-.85c-.55.28-1.11.01-.98-.56.17,1.03-2.34,1.13-3.59,1.71l.28.87c-.98.36-2.33,1.01-3.4.85.1-.02.19-.05.31-.07l-.82-.07c.16.08.33.12.51.14-.12.03-.2.06-.3.1l-2.63.17c.01-.25.04-.51.08-.77.45.43,1.15.11,1.86.34,1.94-.9,3.37-2.87,5.38-2.57.72-2.21-1.32.34-2.34-.36.02-.13.09-.18.16-.2-.09,0-.16,0-.25-.05.7-.31,1.83-.73,1.95-1.84-1.18.3-.72,2.2-2.26,1.38-1.06.67-2.06-.96-2.74-1.07-.68.85-.6,2.58-2.42,2.37l.71-1.26c-2.04.11-.84,1.83-2.73,1.9.67.1-.56,1.23.7,1.18-.58.68-1.94.9-2.99.62-.21.17-.1.36-.06.65l-.52.03s0,0,0,0l-.83-.6c.1.33-.01.52-.2.67l-1.62.11c-.01-.48.23-.96.51-1.39l.19.09c-.16-.5-.06-.66-.76-.89-.42.63.08,1.44-.13,2.2l-1.2.08c-.6-.15-1.45.31-2.63-.21.54-1.41,1.84-.1,2.11-1.38-1.29-.15-1.57.84-2.93.58.13-.64,1.44-.79,1.3-1.6l-.89-.33c2.12-.22-.48-1.67,1.15-2.12-.82-.51-1.02,1.19-2.18.39.35.57,1.31,1.6.28,2.2l-1.23-.32c-.55-.63,1.16-1.54.34-2.04l-1.23.55c.07.4.69.57.34,1.15-.76-.39-1.09,1.65-1.9,2.31-.68.01-1.23-.04-1.5-.5-1.4,1.13-3.21,1.37-4.64,2.2l-.35.02c.26-.63-.6-1.05-1.16-1.52,1.23-.25,1.16-1.53,1.02-2.35-.75.19-1.16,1.54-.75,1.94-1.3-.44-.81.94-1.98.16-.75-.39.28-1.28,0-1.75-1.37.03-.27,1.58-1.77,1.37.07-.18.2-.24.07-.47-.82-.22-1.64.44-1.77,1.09-.96-1.61-2.39.34-2.33-1.29-1.91.56.35.87,0,1.46-.74.77-2.25.28-2.72.05.47-.07.88-.54,1.36-.32l-.48-1.1c-2.46-.64-1.36,2.65-3.75,1.82,1.16-.67.34-.88.88-1.71-.34.3-2.18.11-1.02.9-.88-.04-1.5-.2-2.12-.36-.75.48-1.57.85-1.97,1.61-1.23-.04-2.19-.77-2.81-1.23-2.52.98-4.99-.25-7.64.79l.2.05c-.25,0-.42,0-.54.04l-47.16-77.77,35.92-81.83c.81-.25,1.62-.35,2.86.21-.46-.46.73-1.7,1.55-1.56.48.22.62.45.35.87l1.03-.6c1.43,1.54,2.66.41,4.64.83l-.07.47c.68-.59,1.43-1.07,2.53-.98l-.14.93c1.37.56.88-1.99,2.39-1.5-.07-.99-1.03-1.43-1.23-2.36.41.98,1.99,1.03,1.58.34,1.43-.5,1.01-.04,1.15.19l.82-.66c1.03-.02.41,1.27.07,1.86.89-1.12,1.98-.45,3.07-.35l-.41.47,1.44.08-.61.71c.62.16,1.16-.08,1.63-.15.27-1.28-.27.12-1.02-.56.88-.83,2.18-.97,3.41-.65l-.74,1.35c.89.62.4-.48.61-.71,1.29-.72,1.64.14,2.39.83,2.05-1.5,4.39,1.85,6.09-.22l.27.75c2.38-1.79,5.4.35,7.23-2.07,3.21,2.49,1.83-2.54,4.77-.31l-.12-.38c9.18-.15,18.99.62,27.46-1.24l.02.54c13.85.02,27.21-2,40.91-2.48,1.24-.58.4-1.72,1.45-2.39.48.02,1.56-.12,1.61.54-.9.42-.34.98-.64,1.26-.28.03-.56.08-.8.19.47,0,.7-.08.8-.19,1.53-.17,3.57.46,4.89-.44l-1.2-.78c.51-.39,1.36-.21,1.85-.2-.18.45.59,1.34.19,1.57,2.75-2.32,2.32.76,4.7-.24.37-1.85,3.32-3.54,5.24-4.96l1.09.4c-1.4.08.11,1.32-1.63,1.35,1.49.43,2.78-.44,4.17-.24.08.13.18.24.31.33l.44-.11c-.26-.12-.51-.18-.75-.21-.3-.44-.27-1.04.27-1.28.86.19.99,1.1,1.96,1.13l-.91.63c.68.64,1.18-.3,1.76-.44.24.75,1.69.79,1.49,1.65,1.12-1.02,1.64-.66,2.74-1.15l.43.72c-.31.16-.64.3-1,.3.43.13.95.36,1.5.52l45.71,75.37Zm-170.96-68.56c-.55-.33-1.23.55-1.91.27l.27-.41-1.16,1.25c1.43.09,1.57-.85,2.8-1.11Zm.34.29l-.41,1.05c.14-.06.41-.18.54.05.27-.42.07-.76-.13-1.1Zm23.48,157.79c-.35.3-1.23.26-1.51-.2l.35.58c.41-.19,1.3.43,1.16-.37Zm2.18-.1l.96-.42-1.16.37.2.05Zm1.57.32l-.07-.41-1.22.84,1.29-.43Zm1.1.39l-1.64.44.55.04,1.09-.48Zm9.69-2.75c-1.19-.24-.81,1.42-1.63,1.36-.46-.42.05-.63-.29-.92-.95-.45-1.91-.31-2.39.34.27.46.69,1.73.35,2.32,1.44-.49,2.05-2.61,2.87-1.07l1.09-2.03Zm1.65.67c-.2-.63-1.09-.4-1.22.17.32-.48.89-.22,1.22-.17Zm1.28,1.02l-1.28.46.38.18c.48,0,1.03-.26.9-.64Zm8.37-1.7l-.34-.05c.07-.29-.76-.89.12-1.11-.71-.22-1.22,1.66.22,1.16Zm4.52-1.27c-.22.33-1.33.34-.68.84l.68-.84Zm2.2.93l-.79-.48-.17.45.96.03Zm4.8-.93c-.9-.32-2.04,1.59-2.62.25-2.43.88.72,2.25-2.08,2.95,2.72.53,1.19-2.73,3.61-2.13-1.2-.77.73-.72,1.09-1.08Zm.57,2.28c.1-.7-1.02-.68-1.33-.2.33.06.95.98,1.33.2Zm3.32-3.53l-.73.72.99,1.1c.91-.63-1.12-.52-.27-1.82Zm.99.41c-.26.12-.49.24-.27.35.03-.12.14-.26.27-.35Zm.47.16l.03-.41c-.07.06-.22.12-.36.19.13-.04.27,0,.33.22Zm4.14.98l-.12-.37-.5-.55.61.92Zm1.76-.98c-.71-.23-1.11,0-.87.76.78-.06.32-.49.87-.76Zm7.05-28.78l-6.62-100.66-33.65,2.21,6.62,100.66,33.65-2.21Zm32.06-132.41c-.23-.21-.99.38-.72.72.35-.36.88-.22.72-.72Zm8.18-.3c-.78.32-1.48.53-2.38,1.17.35-.09.81.28.73-.35.52.14,1.51-.24,1.65-.82Z"/>
</svg>