<?xml version="1.0" encoding="UTF-8"?>
<svg id="a" data-name="Layer 1" xmlns="http://www.w3.org/2000/svg" viewBox="0 0 520 520">
  <defs>
    <style>
      .b {
        fill: #faff00;
      }
    </style>
  </defs>
  <circle cx="260" cy="260" r="202.09"/>
  <path class="b" d="m253.66,358.26l-1.34.18.38-.88c.47.14.76.4.96.7Zm-107.92-169.98c-4.96-.43-9.38-1.28-15,1.8-1.12-.85-3.92-1.58-4.86-.89l.38.28c-1.29.81-1.98-1.09-2.89.2l-.89,1.5c-.62-.27-2.05-.16-1.84-.79-.81.78-2.77-.11-2.69,1.73-.31,0-.58,0-.86-.01l-34.16,95.68,57.93,81.84c.22-.08.43-.16.65-.2l.02.41c1.43-.52,2.44-1.92,4.13-1.84-.69.67.2,1.73.58,2.22.46,1.17-1.6,2.23-1.16,2.95l1.13-.15c.9-1.07,1.45-2.53,3.18-2.39.43-1.06-1.14-1.26-1.63-1.22,1.41-.72,3.87.14,4.41-1.24-.6.14-.85-.05-.87-.45.01.2,1.6-2.78,2.32-2.32-.25.8.11.45-.29,1.33.91.38,1.38-.12,1.94-.57,0-.05,0-.08-.01-.13l.06.09c.3-.23.62-.45,1.05-.52-1.27,1.36,1.58-.33.77,1.11-.46-.1-.81-.57-1.25-.34-.41.56,1.02.3.22.89l-.79-1.14s-.03.03-.05.04c.16,1.66-2.1.38-1.65,2.43,3.15.17,3.53-1.88,6.03-3.22,1.22.02,2.04-.26,3.29.09-.15.08-.53.11-.36.36,2.6,1.13,1.7-.75,3.78.5.51-.86,1.52-1.27,2.59-1.45l-57.34-81.02,34.12-95.57Zm236.42-35.52l-.5.07c.24.15.49.26.76.31l-.27-.38Zm24.56,181.45c-.57.87-1.24,2.13-.3,2.79-.04-.84.57-.86,1.28-.76-.19.29-.29.69-.57.86.2-.16.35-.26.5-.35l-.13.37-2.06.28c-.2-.09-.4-.18-.6-.31,0-.52.66-1.27.43-1.3-.94-.13-1.8.9-1.61,1.66-.2.08-.35.12-.49.14-.23-.42-.51-.86-.95-.88-.12-.15-.3-.27-.62-.28-.11,1.46-1.94.99-2.23,1.68.43.09.93,0,1.43-.11,0,.01-.01.03-.02.04l-1.96.27c-.24-.23-.32-.43.55-.72-1.35-1.28-.92.37-1.52.86l-.68.09-1.06-.56c0-1.05,1.52-.73,1.24-1.09l-.66.22c.57-.87,3.21-.71,4.63-2.08l-3.25-.14c-3.83,1.78-9.01,1.05-12.09,3.77.05-.01.09-.03.14-.05-.05.11-.05.3-.04.7l-.19-.24-.57.87c-.9-.86-2.35-.85-3.67-1.45q.85.53,1.03,1.29c0,.3-.02.54-.06.75l-1.18.16c.1-.4.38-.53-.34-.9.45.28.2.78-.23.98l-.16.02c-.52-.26-1.21-.32-1.58-.63l.18-.5c.12.04.23.1.33.14.1-.09-.07-.19-.27-.31l.11-.31c.29.25.63.33.26-.03.04-.12-.03-.23-.13-.34l34.46-96.53-60.07-84.86s0,0,0,0c1.4.54,3.59-.35,4.39-.92.15.03.37,0,.72-.11l-.8-.36,2.77-.38c.69.55,1.11.18,1.56-.21l1.2-.16c.71.46,1.62,1.48,1.74.55.18.11.39-.13.58-.42l.53.11c-.21-.03-.38-.07-.52-.12.12-.17.22-.35.32-.49l.95-.13h1.08c.34.11.75-.08,1.09-.3h.04s.35.44.35.44c.62-.16.67.14.61.28-.04-.03-.08-.04-.12-.06,0,.21.08.17.12.06,2.44,1.44,3.28-1.36,5.86-.18.29-.76-.41-1.06-.71-1.4l2.38-.33-1.29,1.67c.98-.9,1.16-.91,1.74-1.73l2.16-.3c.86.46,1.52,1.02,1.38,1.82,1.98-.14-.75-.95.15-1.66l.18.03,60.31,85.21-34.68,97.15c-.71-.27-1.35-.59-1.34-1.29Zm-47.44-176.51c-.64-.36-2.42.72-3.19,1.24.95-.42,3.44-.47,3.19-1.24Zm21.27-4.08l-1.27.76,1.26,1.33c1.52-.73-.04-.85.01-2.09Zm24.71,180.07c-1.27.24-2.78.98-3.31,1.64l.52.38c.95-.92,2.36-.72,2.79-2.02Zm-35.23-179.27l-.29.04.19.14c.05-.09.07-.12.1-.18Zm-11.88,1.91c-.04-.08-.05-.18-.06-.27l-3.14.43c1.06.04,1.85-.31,3.19-.16Zm-3.36.98c-.09-.2-.19-.5-.38-.74l-.86.12c.31.45.78.63,1.24.63Zm-27.73,7.05c-.2-.71.59-1.08,1.07-1.29l-.24-.34c-.12-.01-.25-.02-.41-.04l.31-.1-.48-.68c-.27.1-.57.21-.9.37,1.98-.5-.63,1.59.66,2.09Zm59.79,81.67l-34.1,95.52c-3.46.2-6.34,1.37-9.8,2.26-1.35.29-.98-1.06-1.68-1.44-3.01.22-3.48,2.21-6.26,2.98.32-.57.79-2.11-.44-2.01-.16.52-.21,1.3-1.02,1.1l.32-.57c-.81-.66-1.39.15-2.9.03-2.58.39-4.88,1.92-6.75,4.06-2.31.14-.01-1.84-.49-2.14,1.7.39,1.08-.45,1.35-1.08.21-.15.41-.32.57-.47-.33.11-.49.28-.57.47-.79.59-1.78,1.02-2.38-.11-1.18.24-1.72.26-2.78,1.22.53-.49,1.13.09.65.71-1.03-.28-3.44.51-3.51-1-5.58,1.07-11.92,1.61-17.93,2.51-.91.91.81.19.33.81-1.34,1.21-1.24-.36-2.31.6l.38-.88c-1.77.12-3.43,1.89-5.03,2.88.15-.97-1.51-.58-.17-1.33-.81.27-2.39-3.75-2.92-2.81l1.47,3.75c0,.39-1.19.31-1.04.55-.83-.66-1.85-1.44-2.35-1.37-.38-.95.91-.91,1.61-.98-.12-1.65-2.48-.73-1.68-2.36-1.45.47.33.81-.48,1.54l-1.34-.17,1.08.41c-1.01.64-1.21,1.93-2.78,1.22l-1.28,1.8c-.33-1.27-1.12-.09-1.94-.28l.37-.89c-1.02.18-1.44.01-2.15-.37.42-1.21.96.15,1.06-.96l-1.18-.23c.11.73-.53,1.4.34,1.74-.86,1.51-1.27,2.72-3.9,2.97-1.35-1.09,1.12-1.28.46-2.45-2.79-.16-2.87,3.71-4.48,3.77-2.09-.23-1.82.91-3.86,1.27.53-.94-1.56-.71-2.05-1.47l.69-1c-.59.35-1.23.1-1.13-.55.27,1.14-2.52,1.44-3.85,2.19l.38.95c-1.06.48-2.51,1.31-3.72,1.22.11-.03.2-.07.34-.11h-.92c.19.06.38.09.58.11-.13.04-.22.09-.33.13l-2.91.4c0-.28,0-.57.03-.86.54.44,1.29.04,2.1.23,2.09-1.15,3.52-3.46,5.78-3.28.63-2.51-1.45.48-2.63-.21.01-.15.08-.2.16-.24-.1,0-.18,0-.28-.03.75-.4,1.98-.96,2.03-2.2-1.29.43-.63,2.51-2.41,1.71-1.12.83-2.37-.91-3.13-.97-.69,1-.46,2.92-2.5,2.82l.69-1.45c-2.26.28-.79,2.1-2.88,2.33.76.06-.53,1.41.87,1.25-.59.81-2.09,1.15-3.27.92-.23.21-.08.4-.02.73l-.58.08s0,0,0,0l-.97-.6c.14.36.03.58-.17.76l-1.8.25c-.05-.53.18-1.09.46-1.59l.21.08c-.21-.54-.11-.73-.92-.93-.42.74.21,1.6.02,2.46l-1.33.18c-.67-.12-1.59.46-2.95-.02.49-1.61,2.04-.26,2.24-1.71-1.45-.06-1.68,1.06-3.22.88.09-.73,1.54-.99,1.32-1.88l-1.02-.3c2.34-.41-.67-1.82,1.11-2.44-.95-.5-1.04,1.4-2.4.61.43.61,1.58,1.68.48,2.43l-1.39-.26c-.66-.65,1.17-1.8.21-2.3l-1.32.71c.11.44.81.58.47,1.26-.87-.38-1.08,1.92-1.94,2.72-.76.07-1.37.06-1.71-.43-1.47,1.37-3.46,1.78-4.99,2.82l-.38.05c.24-.72-.75-1.12-1.41-1.6,1.35-.38,1.17-1.8.95-2.69-.82.27-1.17,1.8-.68,2.22-1.48-.39-.83,1.11-2.19.33-.86-.38.21-1.45-.14-1.95-1.52.14-.17,1.78-1.86,1.67.06-.2.21-.28.04-.52-.93-.18-1.79.62-1.88,1.35-1.2-1.71-2.63.56-2.69-1.25-2.08.78.45.94.12,1.62-.77.92-2.48.49-3.03.27.52-.11.94-.67,1.49-.46l-.62-1.18c-2.79-.52-1.3,3.05-4.03,2.32,1.24-.83.31-1,.85-1.97-.36.37-2.42.29-1.07,1.08-.98.03-1.69-.1-2.38-.24-.79.6-1.68,1.07-2.07,1.95-1.37.06-2.5-.69-3.22-1.14-2.72,1.29-5.57.12-8.44,1.49l.23.04c-.28.01-.47.04-.6.08l-58.6-82.8,33.51-93.87c.88-.34,1.77-.52,3.19.01-.55-.48.67-1.95,1.6-1.86.56.21.72.45.45.94l1.09-.75c1.72,1.6,2.99.24,5.23.56l-.04.52c.72-.71,1.51-1.31,2.74-1.29l-.08,1.04c1.57.51.83-2.29,2.54-1.86-.16-1.09-1.26-1.51-1.56-2.53.53,1.06,2.3.98,1.78.25,1.55-.67,1.12-.13,1.3.12l.86-.8c1.14-.1.56,1.38.23,2.06.9-1.32,2.16-.65,3.39-.63l-.42.56,1.61-.02-.63.84c.7.13,1.28-.18,1.81-.3.2-1.45-.29.15-1.18-.55.91-.99,2.35-1.26,3.74-.99l-.72,1.56c1.04.62.41-.56.63-.84,1.38-.91,1.83.03,2.72.73,2.16-1.83,5.03,1.71,6.76-.72l.36.81c2.51-2.18,6.03-.03,7.88-2.87,3.77,2.52,1.84-2.97,5.29-.73l-.16-.41c10.21-.89,21.17-.81,30.45-3.55l.06.6c15.41-1.07,30.12-4.37,45.31-5.98,1.34-.75.3-1.94,1.43-2.77.54-.02,1.72-.26,1.83.48-.97.54-.3,1.11-.61,1.45-.31.06-.62.14-.88.27.53-.05.77-.14.88-.27,1.69-.31,4.01.23,5.4-.87l-1.4-.77c.54-.48,1.5-.34,2.04-.36-.16.51.76,1.44.33,1.74,2.88-2.79,2.64.67,5.21-.63.26-2.08,3.41-4.2,5.44-5.94l1.24.36c-1.55.2.23,1.46-1.71,1.63,1.69.36,3.06-.71,4.62-.6.1.13.22.25.38.34l.48-.16c-.29-.11-.58-.16-.86-.18-.36-.46-.38-1.13.2-1.45.97.15,1.19,1.14,2.27,1.1l-.97.78c.81.66,1.29-.42,1.93-.63.33.81,1.94.75,1.79,1.72,1.16-1.22,1.77-.87,2.95-1.5l.54.76c-.34.21-.69.38-1.09.41.49.11,1.09.32,1.71.46l56.79,80.24Zm-195.6-62.79c-.64-.33-1.32.71-2.11.45l.27-.48-1.19,1.48c1.6-.02,1.68-1.06,3.03-1.45Zm.4.29l-.37,1.2c.15-.08.44-.23.61.01.27-.49.02-.85-.23-1.22Zm38.57,173.69c-.36.36-1.35.38-1.69-.11l.43.62c.44-.24,1.48.38,1.26-.51Zm2.42-.29l1.03-.55-1.26.5.23.04Zm1.77.23l-.11-.45-1.29,1.03,1.4-.58Zm1.25.34l-1.79.62h.61s1.18-.62,1.18-.62Zm10.56-3.82c-1.35-.17-.79,1.65-1.71,1.64-.54-.44,0-.71-.4-1-1.09-.42-2.15-.2-2.63.56.34.49.9,1.87.57,2.55,1.56-.66,2.07-3.07,3.11-1.41l1.06-2.34Zm1.89.61c-.27-.68-1.25-.36-1.35.29.32-.56.97-.32,1.35-.29Zm1.51,1.04l-1.39.61.44.17c.54-.03,1.12-.37.96-.78Zm9.18-2.55l-.38-.03c.05-.33-.92-.93.04-1.24-.81-.19-1.22,1.94.34,1.27Zm4.93-1.77c-.22.38-1.45.48-.69.99l.69-.99Zm2.53.86l-.92-.47-.15.52,1.07-.05Zm5.26-1.42c-1.03-.28-2.14,1.93-2.9.49-2.63,1.17.98,2.44-2.08,3.45,3.07.38,1.1-3.13,3.85-2.65-1.4-.77.75-.86,1.12-1.29Zm.82,2.49c.05-.78-1.19-.68-1.5-.12.37.04,1.13,1.01,1.5.12Zm3.41-4.19l-.75.86,1.19,1.15c.97-.78-1.29-.49-.44-2Zm1.14.38c-.28.16-.52.31-.27.41.02-.14.14-.31.27-.41Zm.53.15v-.46c-.08.08-.24.16-.39.24.14-.05.3-.01.39.22Zm4.68.77l-.16-.4-.6-.57.76.98Zm1.88-1.23c-.81-.2-1.23.1-.91.91.86-.13.32-.57.91-.91Zm5.57-32.58l-15.31-111.46-37.26,5.12,15.31,111.46,37.26-5.12Zm25.22-149.84c-.27-.22-1.07.51-.74.86.37-.43.96-.31.74-.86Zm9.08-.98c-.85.42-1.61.7-2.55,1.49.38-.12.92.25.79-.45.59.12,1.66-.39,1.77-1.04Z"/>
</svg>