<?xml version="1.0" encoding="UTF-8"?>
<svg id="a" data-name="Layer 1" xmlns="http://www.w3.org/2000/svg" viewBox="0 0 520 200">
  <defs>
    <style>
      .b {
        fill: #fff;
      }

      .c {
        fill: #faff00;
      }
    </style>
  </defs>
  <g>
    <polygon class="c" points="250.3 102.6 167.26 102.6 84.22 102.6 68.21 71.8 84.22 41 167.26 41 250.3 41 266.32 71.8 250.3 102.6"/>
    <g>
      <path d="m89.63,52.73h12.45v37.25h-12.45v-37.25Z"/>
      <path d="m107.13,52.73h12.45l14.79,19.37h.37v-19.37h12.45v37.25h-12.45l-14.74-18.73h-.43v18.73h-12.45v-37.25Z"/>
      <path d="m192.47,71.09c0,12.24-10.48,18.89-18.3,18.89h-22.19v-37.25h22.61c9.15,0,17.88,6.97,17.88,18.36Zm-12.56-.05c0-6.01-3.78-8.46-9.52-8.46h-5.96v17.56h6.38c5.21,0,9.1-3.51,9.1-9.1Z"/>
      <path d="m196.46,52.73h12.45v37.25h-12.45v-37.25Z"/>
      <path d="m226.95,62.52v3.88h20.43v9.84h-20.43v3.94h20.43v9.79h-32.88v-37.25h32.88v9.79h-20.43Z"/>
    </g>
  </g>
  <g>
    <path class="b" d="m68.21,132.34c0-10.59,8.62-19.15,19.21-19.15,5.48,0,10.38,2.29,13.89,5.91l-8.67,8.78c-1.28-1.49-3.14-2.39-5.21-2.39-3.78,0-6.86,3.09-6.86,6.86s3.09,6.92,6.86,6.92c2.02,0,3.88-.9,5.11-2.34l8.78,8.73c-3.51,3.62-8.46,5.91-13.89,5.91-10.59,0-19.21-8.57-19.21-19.21Z"/>
    <path class="b" d="m122.8,137.23h-5.85v13.78h-12.45v-37.25h26.34c7.55,0,12.13,4.36,12.13,11.81,0,4.95-3.3,8.94-7.71,10.7l8.94,14.74h-13.51l-7.88-13.78Zm-5.85-9.74h11.55c1.17,0,2.02-.8,2.02-2.02,0-1.33-.85-1.92-2.02-1.92h-11.55v3.94Z"/>
    <path class="b" d="m160.63,123.56v3.88h20.43v9.84h-20.43v3.94h20.43v9.79h-32.88v-37.25h32.88v9.79h-20.43Z"/>
    <path class="b" d="m210.8,147.24h-13.41l-1.01,3.78h-12.93l10.85-37.25h19.58l10.85,37.25h-12.93l-1.01-3.78Zm-2.66-9.95l-3.62-13.67h-.85l-3.62,13.67h8.09Z"/>
    <path class="b" d="m234.74,123.61h-11.07v-9.84h34.58v9.84h-11.07v27.4h-12.45v-27.4Z"/>
    <path class="b" d="m259.59,132.34c0-10.59,8.62-19.15,19.21-19.15s19.21,8.57,19.21,19.15-8.62,19.21-19.21,19.21-19.21-8.57-19.21-19.21Zm26.07,0c0-3.78-3.09-6.86-6.86-6.86s-6.86,3.09-6.86,6.86,3.09,6.92,6.86,6.92,6.86-3.09,6.86-6.92Z"/>
    <path class="b" d="m320.29,137.23h-5.85v13.78h-12.45v-37.25h26.34c7.55,0,12.13,4.36,12.13,11.81,0,4.95-3.3,8.94-7.71,10.7l8.94,14.74h-13.51l-7.88-13.78Zm-5.85-9.74h11.55c1.17,0,2.02-.8,2.02-2.02,0-1.33-.85-1.92-2.02-1.92h-11.55v3.94Z"/>
    <path class="b" d="m344.5,141.17h19.42c1.65,0,2.45-.74,2.45-1.97s-.8-1.92-2.5-1.92h-8.83c-6.23,0-11.28-4.26-11.28-11.76,0-8.62,5.91-11.76,11.87-11.76h22.03v9.84h-19c-1.44,0-2.45.53-2.45,1.86s1.01,1.97,2.45,1.97h8.3c7.13,0,11.87,4.2,11.87,11.71,0,7.08-5.32,11.87-12.24,11.87h-22.24l.16-9.84Z"/>
  </g>
  <g>
    <rect class="c" x="386.95" y="113.3" width="66.43" height="38.88"/>
    <g>
      <path d="m419.48,121.73v22.11h-7.39v-8.15h-8.88v8.15h-7.39v-22.11h7.39v8.12h8.88v-8.12h7.39Z"/>
      <path d="m438.71,143.84l-.54-.82c-1.48.73-3.16,1.14-4.93,1.14-6.29,0-11.4-5.08-11.4-11.4s5.12-11.37,11.4-11.37,11.4,5.08,11.4,11.37c0,2.24-.63,4.33-1.74,6.1l3.09,5.02-7.3-.03Zm-4.58-7.08l-2.18-3.38h5.31c.03-.22.06-.41.06-.63,0-2.24-1.83-4.07-4.08-4.07s-4.07,1.83-4.07,4.07,1.83,4.11,4.07,4.11c.32,0,.6-.03.88-.09Z"/>
    </g>
  </g>
</svg>