<?xml version="1.0" encoding="UTF-8"?>
<svg id="a" data-name="Layer 1" xmlns="http://www.w3.org/2000/svg" viewBox="0 0 520 520">
  <defs>
    <style>
      .b {
        fill: #fff;
      }

      .c {
        fill: none;
        stroke: #000;
        stroke-width: 6.84px;
      }

      .d {
        fill: #faff00;
      }
    </style>
  </defs>
  <g>
    <polygon class="d" points="406.66 265.66 256.79 277.03 106.92 288.41 73.81 235.02 98.49 177.24 248.35 165.86 398.22 154.49 431.34 207.88 406.66 265.66"/>
    <g>
      <path d="m109.86,197.61l22.47-1.71,5.1,67.22-22.47,1.71-5.1-67.22Z"/>
      <path d="m141.45,195.21l22.47-1.71,29.35,32.93.67-.05-2.65-34.95,22.47-1.71,5.1,67.22-22.47,1.71-29.16-31.78-.77.06,2.57,33.8-22.47,1.71-5.1-67.22Z"/>
      <path d="m297.98,216.65c1.68,22.08-16.33,35.52-30.44,36.59l-40.04,3.04-5.1-67.22,40.81-3.1c16.52-1.25,33.22,10.13,34.78,30.68Zm-22.67,1.62c-.82-10.85-7.98-14.75-18.35-13.96l-10.75.82,2.41,31.69,11.52-.87c9.41-.71,15.94-7.58,15.17-17.67Z"/>
      <path d="m302.67,182.97l22.47-1.71,5.1,67.22-22.47,1.71-5.1-67.22Z"/>
      <path d="m359.03,196.46l.53,7.01,36.87-2.8,1.35,17.76-36.87,2.8.54,7.11,36.87-2.8,1.34,17.67-59.34,4.5-5.1-67.22,59.34-4.5,1.34,17.67-36.87,2.8Z"/>
    </g>
  </g>
  <g>
    <g>
      <path class="c" d="m61.93,296.97c0-12.77,10.4-23.11,23.17-23.11,6.61,0,12.52,2.76,16.75,7.12l-10.46,10.59c-1.54-1.8-3.79-2.89-6.29-2.89-4.56,0-8.28,3.72-8.28,8.28s3.72,8.35,8.28,8.35c2.44,0,4.69-1.09,6.16-2.83l10.59,10.53c-4.24,4.37-10.21,7.12-16.75,7.12-12.77,0-23.17-10.33-23.17-23.17Z"/>
      <path class="c" d="m127.79,302.87h-7.06v16.63h-15.02v-44.94h31.78c9.12,0,14.64,5.26,14.64,14.25,0,5.97-3.98,10.78-9.31,12.9l10.78,17.78h-16.31l-9.5-16.63Zm-7.06-11.75h13.93c1.41,0,2.44-.96,2.44-2.44,0-1.61-1.03-2.31-2.44-2.31h-13.93v4.75Z"/>
      <path class="c" d="m173.43,286.37v4.69h24.65v11.88h-24.65v4.75h24.65v11.81h-39.67v-44.94h39.67v11.81h-24.65Z"/>
      <path class="c" d="m233.97,314.94h-16.18l-1.22,4.56h-15.6l13.1-44.94h23.62l13.1,44.94h-15.6l-1.22-4.56Zm-3.21-12l-4.37-16.5h-1.03l-4.37,16.5h9.76Z"/>
      <path class="c" d="m262.86,286.44h-13.35v-11.88h41.73v11.88h-13.35v33.06h-15.02v-33.06Z"/>
      <path class="c" d="m292.84,296.97c0-12.77,10.4-23.11,23.17-23.11s23.17,10.33,23.17,23.11-10.4,23.17-23.17,23.17-23.17-10.33-23.17-23.17Zm31.46,0c0-4.56-3.72-8.28-8.28-8.28s-8.28,3.72-8.28,8.28,3.72,8.35,8.28,8.35,8.28-3.72,8.28-8.35Z"/>
      <path class="c" d="m366.09,302.87h-7.06v16.63h-15.02v-44.94h31.78c9.12,0,14.64,5.26,14.64,14.25,0,5.97-3.98,10.78-9.31,12.9l10.78,17.78h-16.31l-9.5-16.63Zm-7.06-11.75h13.93c1.41,0,2.44-.96,2.44-2.44,0-1.61-1.03-2.31-2.44-2.31h-13.93v4.75Z"/>
      <path class="c" d="m395.3,307.62h23.43c1.99,0,2.95-.9,2.95-2.38s-.96-2.31-3.02-2.31h-10.66c-7.51,0-13.61-5.14-13.61-14.19,0-10.4,7.12-14.19,14.32-14.19h26.58v11.88h-22.92c-1.73,0-2.95.64-2.95,2.25s1.22,2.38,2.95,2.38h10.01c8.6,0,14.32,5.07,14.32,14.12,0,8.54-6.42,14.32-14.76,14.32h-26.83l.19-11.88Z"/>
    </g>
    <g>
      <path class="b" d="m61.93,296.97c0-12.77,10.4-23.11,23.17-23.11,6.61,0,12.52,2.76,16.75,7.12l-10.46,10.59c-1.54-1.8-3.79-2.89-6.29-2.89-4.56,0-8.28,3.72-8.28,8.28s3.72,8.35,8.28,8.35c2.44,0,4.69-1.09,6.16-2.83l10.59,10.53c-4.24,4.37-10.21,7.12-16.75,7.12-12.77,0-23.17-10.33-23.17-23.17Z"/>
      <path class="b" d="m127.79,302.87h-7.06v16.63h-15.02v-44.94h31.78c9.12,0,14.64,5.26,14.64,14.25,0,5.97-3.98,10.78-9.31,12.9l10.78,17.78h-16.31l-9.5-16.63Zm-7.06-11.75h13.93c1.41,0,2.44-.96,2.44-2.44,0-1.61-1.03-2.31-2.44-2.31h-13.93v4.75Z"/>
      <path class="b" d="m173.43,286.37v4.69h24.65v11.88h-24.65v4.75h24.65v11.81h-39.67v-44.94h39.67v11.81h-24.65Z"/>
      <path class="b" d="m233.97,314.94h-16.18l-1.22,4.56h-15.6l13.1-44.94h23.62l13.1,44.94h-15.6l-1.22-4.56Zm-3.21-12l-4.37-16.5h-1.03l-4.37,16.5h9.76Z"/>
      <path class="b" d="m262.86,286.44h-13.35v-11.88h41.73v11.88h-13.35v33.06h-15.02v-33.06Z"/>
      <path class="b" d="m292.84,296.97c0-12.77,10.4-23.11,23.17-23.11s23.17,10.33,23.17,23.11-10.4,23.17-23.17,23.17-23.17-10.33-23.17-23.17Zm31.46,0c0-4.56-3.72-8.28-8.28-8.28s-8.28,3.72-8.28,8.28,3.72,8.35,8.28,8.35,8.28-3.72,8.28-8.35Z"/>
      <path class="b" d="m366.09,302.87h-7.06v16.63h-15.02v-44.94h31.78c9.12,0,14.64,5.26,14.64,14.25,0,5.97-3.98,10.78-9.31,12.9l10.78,17.78h-16.31l-9.5-16.63Zm-7.06-11.75h13.93c1.41,0,2.44-.96,2.44-2.44,0-1.61-1.03-2.31-2.44-2.31h-13.93v4.75Z"/>
      <path class="b" d="m395.3,307.62h23.43c1.99,0,2.95-.9,2.95-2.38s-.96-2.31-3.02-2.31h-10.66c-7.51,0-13.61-5.14-13.61-14.19,0-10.4,7.12-14.19,14.32-14.19h26.58v11.88h-22.92c-1.73,0-2.95.64-2.95,2.25s1.22,2.38,2.95,2.38h10.01c8.6,0,14.32,5.07,14.32,14.12,0,8.54-6.42,14.32-14.76,14.32h-26.83l.19-11.88Z"/>
    </g>
  </g>
  <g>
    <rect class="d" x="388.01" y="321.3" width="70.28" height="41.13" transform="translate(-29.04 39.45) rotate(-5.16)"/>
    <g>
      <path d="m421.4,330.44l2.1,23.3-7.79.7-.78-8.59-9.35.84.78,8.59-7.79.7-2.1-23.3,7.79-.7.77,8.55,9.35-.84-.77-8.55,7.79-.7Z"/>
      <path d="m443.77,351.9l-.64-.81c-1.5.91-3.22,1.5-5.08,1.67-6.62.6-12.5-4.27-13.1-10.93-.6-6.62,4.31-12.47,10.93-13.07,6.62-.6,12.5,4.27,13.1,10.9.21,2.36-.25,4.62-1.25,6.59l3.74,5-7.69.66Zm-5.5-7.02l-2.62-3.35,5.59-.5c.01-.24.03-.44,0-.67-.21-2.36-2.32-4.12-4.68-3.91-2.36.21-4.12,2.32-3.91,4.68.22,2.4,2.32,4.15,4.68,3.94.33-.03.63-.09.92-.18Z"/>
    </g>
  </g>
</svg>