<?xml version="1.0" encoding="UTF-8"?>
<svg id="a" data-name="Layer 1" xmlns="http://www.w3.org/2000/svg" viewBox="0 0 520 520">
  <defs>
    <style>
      .b {
        fill: #fff;
      }

      .c {
        fill: #faff00;
      }

      .d {
        fill: none;
        stroke: #000;
        stroke-width: 7.23px;
      }
    </style>
  </defs>
  <g>
    <polygon class="c" points="426.22 285.2 267.9 297.21 109.57 309.23 74.59 252.83 100.66 191.79 258.98 179.77 417.31 167.75 452.3 224.16 426.22 285.2"/>
    <g>
      <path d="m112.67,213.31l23.74-1.8,5.39,71.01-23.74,1.8-5.39-71.01Z"/>
      <path d="m146.05,210.77l23.74-1.8,31,34.78.71-.05-2.8-36.92,23.74-1.8,5.39,71.01-23.74,1.8-30.81-33.57-.81.06,2.71,35.71-23.74,1.8-5.39-71.01Z"/>
      <path d="m311.41,233.42c1.77,23.33-17.25,37.53-32.16,38.66l-42.3,3.21-5.39-71.01,43.11-3.27c17.45-1.32,35.09,10.7,36.74,32.41Zm-23.95,1.72c-.87-11.46-8.43-15.58-19.38-14.75l-11.36.86,2.54,33.48,12.17-.92c9.94-.75,16.84-8.01,16.03-18.66Z"/>
      <path d="m316.37,197.85l23.74-1.8,5.39,71.01-23.74,1.8-5.39-71.01Z"/>
      <path d="m375.91,212.1l.56,7.41,38.95-2.96,1.42,18.77-38.95,2.96.57,7.51,38.95-2.96,1.42,18.67-62.69,4.76-5.39-71.01,62.69-4.76,1.42,18.66-38.95,2.96Z"/>
    </g>
  </g>
  <g>
    <g>
      <path class="d" d="m62.04,318.27c0-13.5,10.99-24.42,24.48-24.42,6.99,0,13.23,2.92,17.7,7.53l-11.05,11.19c-1.63-1.9-4-3.05-6.65-3.05-4.82,0-8.75,3.93-8.75,8.75s3.93,8.82,8.75,8.82c2.58,0,4.95-1.15,6.51-2.98l11.19,11.12c-4.48,4.61-10.78,7.53-17.7,7.53-13.5,0-24.48-10.92-24.48-24.49Z"/>
      <path class="d" d="m131.62,324.51h-7.46v17.57h-15.87v-47.48h33.57c9.63,0,15.46,5.56,15.46,15.06,0,6.31-4.21,11.4-9.83,13.63l11.39,18.79h-17.23l-10.04-17.57Zm-7.46-12.41h14.72c1.49,0,2.58-1.02,2.58-2.58,0-1.7-1.08-2.44-2.58-2.44h-14.72v5.02Z"/>
      <path class="d" d="m179.84,307.08v4.95h26.04v12.55h-26.04v5.02h26.04v12.48h-41.92v-47.48h41.92v12.48h-26.04Z"/>
      <path class="d" d="m243.79,337.26h-17.09l-1.29,4.82h-16.48l13.84-47.48h24.96l13.84,47.48h-16.48l-1.29-4.82Zm-3.39-12.68l-4.61-17.43h-1.08l-4.61,17.43h10.31Z"/>
      <path class="d" d="m274.31,307.15h-14.11v-12.55h44.09v12.55h-14.11v34.93h-15.87v-34.93Z"/>
      <path class="d" d="m305.98,318.27c0-13.5,10.99-24.42,24.48-24.42s24.49,10.92,24.49,24.42-10.99,24.49-24.49,24.49-24.48-10.92-24.48-24.49Zm33.23,0c0-4.82-3.93-8.75-8.75-8.75s-8.75,3.93-8.75,8.75,3.93,8.82,8.75,8.82,8.75-3.93,8.75-8.82Z"/>
      <path class="d" d="m383.37,324.51h-7.46v17.57h-15.87v-47.48h33.57c9.63,0,15.46,5.56,15.46,15.06,0,6.31-4.21,11.4-9.83,13.63l11.39,18.79h-17.23l-10.04-17.57Zm-7.46-12.41h14.72c1.49,0,2.58-1.02,2.58-2.58,0-1.7-1.08-2.44-2.58-2.44h-14.72v5.02Z"/>
      <path class="d" d="m414.22,329.53h24.76c2.1,0,3.12-.95,3.12-2.51s-1.02-2.44-3.19-2.44h-11.26c-7.94,0-14.38-5.43-14.38-14.99,0-10.99,7.53-14.99,15.12-14.99h28.08v12.55h-24.21c-1.83,0-3.12.68-3.12,2.37s1.29,2.51,3.12,2.51h10.58c9.09,0,15.12,5.36,15.12,14.92,0,9.02-6.78,15.12-15.6,15.12h-28.35l.2-12.55Z"/>
    </g>
    <g>
      <path class="b" d="m62.04,318.27c0-13.5,10.99-24.42,24.48-24.42,6.99,0,13.23,2.92,17.7,7.53l-11.05,11.19c-1.63-1.9-4-3.05-6.65-3.05-4.82,0-8.75,3.93-8.75,8.75s3.93,8.82,8.75,8.82c2.58,0,4.95-1.15,6.51-2.98l11.19,11.12c-4.48,4.61-10.78,7.53-17.7,7.53-13.5,0-24.48-10.92-24.48-24.49Z"/>
      <path class="b" d="m131.62,324.51h-7.46v17.57h-15.87v-47.48h33.57c9.63,0,15.46,5.56,15.46,15.06,0,6.31-4.21,11.4-9.83,13.63l11.39,18.79h-17.23l-10.04-17.57Zm-7.46-12.41h14.72c1.49,0,2.58-1.02,2.58-2.58,0-1.7-1.08-2.44-2.58-2.44h-14.72v5.02Z"/>
      <path class="b" d="m179.84,307.08v4.95h26.04v12.55h-26.04v5.02h26.04v12.48h-41.92v-47.48h41.92v12.48h-26.04Z"/>
      <path class="b" d="m243.79,337.26h-17.09l-1.29,4.82h-16.48l13.84-47.48h24.96l13.84,47.48h-16.48l-1.29-4.82Zm-3.39-12.68l-4.61-17.43h-1.08l-4.61,17.43h10.31Z"/>
      <path class="b" d="m274.31,307.15h-14.11v-12.55h44.09v12.55h-14.11v34.93h-15.87v-34.93Z"/>
      <path class="b" d="m305.98,318.27c0-13.5,10.99-24.42,24.48-24.42s24.49,10.92,24.49,24.42-10.99,24.49-24.49,24.49-24.48-10.92-24.48-24.49Zm33.23,0c0-4.82-3.93-8.75-8.75-8.75s-8.75,3.93-8.75,8.75,3.93,8.82,8.75,8.82,8.75-3.93,8.75-8.82Z"/>
      <path class="b" d="m383.37,324.51h-7.46v17.57h-15.87v-47.48h33.57c9.63,0,15.46,5.56,15.46,15.06,0,6.31-4.21,11.4-9.83,13.63l11.39,18.79h-17.23l-10.04-17.57Zm-7.46-12.41h14.72c1.49,0,2.58-1.02,2.58-2.58,0-1.7-1.08-2.44-2.58-2.44h-14.72v5.02Z"/>
      <path class="b" d="m414.22,329.53h24.76c2.1,0,3.12-.95,3.12-2.51s-1.02-2.44-3.19-2.44h-11.26c-7.94,0-14.38-5.43-14.38-14.99,0-10.99,7.53-14.99,15.12-14.99h28.08v12.55h-24.21c-1.83,0-3.12.68-3.12,2.37s1.29,2.51,3.12,2.51h10.58c9.09,0,15.12,5.36,15.12,14.92,0,9.02-6.78,15.12-15.6,15.12h-28.35l.2-12.55Z"/>
    </g>
  </g>
</svg>