<?xml version="1.0" encoding="UTF-8"?>
<svg id="a" data-name="Layer 1" xmlns="http://www.w3.org/2000/svg" viewBox="0 0 520 520">
  <defs>
    <style>
      .b {
        fill: #fff;
      }

      .c {
        fill: #faff00;
      }
    </style>
  </defs>
  <g>
    <polygon class="c" points="403.24 262.3 256.26 273.46 109.27 284.62 76.79 232.25 101 175.59 247.98 164.43 394.96 153.27 427.44 205.64 403.24 262.3"/>
    <g>
      <path d="m112.15,195.56l22.04-1.67,5,65.93-22.04,1.67-5-65.93Z"/>
      <path d="m143.14,193.21l22.04-1.67,28.78,32.29.66-.05-2.6-34.28,22.04-1.67,5,65.93-22.04,1.67-28.6-31.17-.75.06,2.52,33.15-22.04,1.67-5-65.93Z"/>
      <path d="m296.66,214.23c1.64,21.66-16.01,34.84-29.86,35.89l-39.27,2.98-5-65.93,40.03-3.04c16.2-1.23,32.58,9.94,34.11,30.09Zm-22.23,1.59c-.81-10.64-7.82-14.47-17.99-13.69l-10.55.8,2.36,31.08,11.3-.86c9.23-.7,15.63-7.44,14.88-17.33Z"/>
      <path d="m301.25,181.21l22.04-1.67,5,65.93-22.04,1.67-5-65.93Z"/>
      <path d="m356.53,194.44l.52,6.88,36.17-2.75,1.32,17.42-36.17,2.75.53,6.97,36.17-2.75,1.32,17.33-58.2,4.42-5-65.93,58.2-4.42,1.32,17.33-36.17,2.75Z"/>
    </g>
  </g>
  <rect x="60" y="269.46" width="381.22" height="57.13"/>
  <g>
    <path class="b" d="m65.14,298.25c0-12.53,10.2-22.66,22.73-22.66,6.49,0,12.28,2.71,16.43,6.99l-10.26,10.39c-1.51-1.76-3.71-2.83-6.17-2.83-4.47,0-8.12,3.65-8.12,8.12s3.65,8.18,8.12,8.18c2.39,0,4.6-1.07,6.04-2.77l10.39,10.33c-4.16,4.28-10.01,6.99-16.43,6.99-12.53,0-22.73-10.14-22.73-22.73Z"/>
    <path class="b" d="m129.74,304.04h-6.92v16.31h-14.73v-44.07h31.16c8.94,0,14.35,5.16,14.35,13.98,0,5.86-3.9,10.58-9.13,12.65l10.58,17.44h-15.99l-9.32-16.31Zm-6.92-11.52h13.66c1.38,0,2.39-.94,2.39-2.39,0-1.57-1.01-2.27-2.39-2.27h-13.66v4.66Z"/>
    <path class="b" d="m174.5,287.86v4.6h24.18v11.65h-24.18v4.66h24.18v11.58h-38.91v-44.07h38.91v11.58h-24.18Z"/>
    <path class="b" d="m233.87,315.88h-15.87l-1.2,4.47h-15.3l12.84-44.07h23.17l12.84,44.07h-15.3l-1.2-4.47Zm-3.15-11.77l-4.28-16.18h-1.01l-4.28,16.18h9.57Z"/>
    <path class="b" d="m262.21,287.93h-13.1v-11.65h40.92v11.65h-13.09v32.42h-14.73v-32.42Z"/>
    <path class="b" d="m291.61,298.25c0-12.53,10.2-22.66,22.73-22.66s22.73,10.14,22.73,22.66-10.2,22.73-22.73,22.73-22.73-10.14-22.73-22.73Zm30.85,0c0-4.47-3.65-8.12-8.12-8.12s-8.12,3.65-8.12,8.12,3.65,8.18,8.12,8.18,8.12-3.65,8.12-8.18Z"/>
    <path class="b" d="m363.45,304.04h-6.92v16.31h-14.73v-44.07h31.16c8.94,0,14.35,5.16,14.35,13.98,0,5.86-3.9,10.58-9.13,12.65l10.58,17.44h-15.99l-9.32-16.31Zm-6.92-11.52h13.66c1.38,0,2.39-.94,2.39-2.39,0-1.57-1.01-2.27-2.39-2.27h-13.66v4.66Z"/>
    <path class="b" d="m392.09,308.7h22.98c1.95,0,2.9-.88,2.9-2.33s-.94-2.27-2.96-2.27h-10.45c-7.37,0-13.35-5.04-13.35-13.91,0-10.2,6.99-13.91,14.04-13.91h26.07v11.65h-22.48c-1.7,0-2.9.63-2.9,2.2s1.2,2.33,2.9,2.33h9.82c8.44,0,14.04,4.97,14.04,13.85,0,8.37-6.3,14.04-14.48,14.04h-26.32l.19-11.65Z"/>
  </g>
  <g>
    <rect class="c" x="389.4" y="323.37" width="68.93" height="40.34" transform="translate(-29.19 39.52) rotate(-5.16)"/>
    <g>
      <path d="m422.14,332.33l2.06,22.85-7.64.69-.76-8.42-9.17.83.76,8.42-7.64.69-2.06-22.85,7.64-.69.76,8.39,9.17-.83-.76-8.39,7.64-.69Z"/>
      <path d="m444.08,353.38l-.63-.8c-1.47.89-3.16,1.47-4.99,1.64-6.5.59-12.26-4.19-12.85-10.72-.59-6.5,4.23-12.23,10.72-12.82,6.5-.59,12.26,4.19,12.84,10.69.21,2.32-.25,4.53-1.23,6.46l3.67,4.9-7.54.65Zm-5.39-6.88l-2.57-3.29,5.48-.5c.01-.23.03-.43,0-.66-.21-2.32-2.27-4.04-4.59-3.83-2.32.21-4.04,2.27-3.83,4.59.21,2.35,2.28,4.07,4.6,3.86.33-.03.62-.09.91-.18Z"/>
    </g>
  </g>
</svg>