<?xml version="1.0" encoding="UTF-8"?>
<svg id="a" data-name="Layer 1" xmlns="http://www.w3.org/2000/svg" viewBox="0 0 520 520">
  <defs>
    <style>
      .b {
        fill: #fff;
      }

      .c {
        fill: #faff00;
      }
    </style>
  </defs>
  <g>
    <polygon class="c" points="420.14 281.79 265.92 293.5 111.7 305.21 77.62 250.26 103.01 190.81 257.24 179.1 411.46 167.39 445.54 222.34 420.14 281.79"/>
    <g>
      <path d="m114.72,211.77l23.12-1.76,5.25,69.17-23.12,1.75-5.25-69.16Z"/>
      <path d="m147.23,209.3l23.12-1.76,30.2,33.88.69-.05-2.73-35.96,23.12-1.76,5.25,69.17-23.12,1.75-30.01-32.7-.79.06,2.64,34.78-23.12,1.75-5.25-69.16Z"/>
      <path d="m308.31,231.36c1.72,22.72-16.8,36.55-31.33,37.66l-41.2,3.13-5.25-69.16,41.99-3.19c16.99-1.29,34.18,10.42,35.79,31.57Zm-23.33,1.67c-.85-11.17-8.21-15.18-18.88-14.37l-11.07.84,2.48,32.61,11.86-.9c9.68-.74,16.4-7.8,15.61-18.18Z"/>
      <path d="m313.13,196.71l23.12-1.76,5.25,69.16-23.12,1.76-5.25-69.17Z"/>
      <path d="m371.13,210.59l.55,7.21,37.94-2.88,1.39,18.28-37.94,2.88.55,7.31,37.94-2.88,1.38,18.18-61.06,4.63-5.25-69.17,61.06-4.63,1.38,18.18-37.94,2.88Z"/>
    </g>
  </g>
  <rect x="60" y="289.3" width="400" height="59.94"/>
  <g>
    <path class="b" d="m65.39,319.51c0-13.14,10.7-23.78,23.85-23.78,6.8,0,12.88,2.84,17.24,7.33l-10.77,10.9c-1.58-1.85-3.9-2.97-6.47-2.97-4.69,0-8.52,3.83-8.52,8.52s3.83,8.59,8.52,8.59c2.51,0,4.82-1.12,6.34-2.91l10.9,10.83c-4.36,4.49-10.5,7.33-17.24,7.33-13.14,0-23.85-10.63-23.85-23.85Z"/>
    <path class="b" d="m133.17,325.59h-7.27v17.11h-15.46v-46.24h32.7c9.38,0,15.06,5.42,15.06,14.66,0,6.14-4.1,11.1-9.58,13.28l11.1,18.3h-16.78l-9.78-17.11Zm-7.27-12.09h14.33c1.45,0,2.51-.99,2.51-2.51,0-1.65-1.06-2.38-2.51-2.38h-14.33v4.89Z"/>
    <path class="b" d="m180.14,308.61v4.82h25.37v12.22h-25.37v4.89h25.37v12.15h-40.82v-46.24h40.82v12.15h-25.37Z"/>
    <path class="b" d="m242.43,338.01h-16.65l-1.25,4.69h-16.05l13.48-46.24h24.31l13.48,46.24h-16.05l-1.25-4.69Zm-3.3-12.35l-4.49-16.98h-1.06l-4.49,16.98h10.04Z"/>
    <path class="b" d="m272.16,308.68h-13.74v-12.22h42.94v12.22h-13.74v34.02h-15.46v-34.02Z"/>
    <path class="b" d="m303.02,319.51c0-13.14,10.7-23.78,23.85-23.78s23.85,10.63,23.85,23.78-10.7,23.85-23.85,23.85-23.85-10.63-23.85-23.85Zm32.37,0c0-4.69-3.83-8.52-8.52-8.52s-8.52,3.83-8.52,8.52,3.83,8.59,8.52,8.59,8.52-3.83,8.52-8.59Z"/>
    <path class="b" d="m378.39,325.59h-7.27v17.11h-15.46v-46.24h32.7c9.38,0,15.06,5.42,15.06,14.66,0,6.14-4.1,11.1-9.58,13.28l11.1,18.3h-16.78l-9.78-17.11Zm-7.27-12.09h14.33c1.45,0,2.51-.99,2.51-2.51,0-1.65-1.06-2.38-2.51-2.38h-14.33v4.89Z"/>
    <path class="b" d="m408.45,330.48h24.11c2.05,0,3.04-.92,3.04-2.44s-.99-2.38-3.1-2.38h-10.96c-7.73,0-14-5.29-14-14.6,0-10.7,7.33-14.6,14.73-14.6h27.35v12.22h-23.58c-1.78,0-3.04.66-3.04,2.31s1.25,2.44,3.04,2.44h10.3c8.85,0,14.73,5.22,14.73,14.53,0,8.79-6.61,14.73-15.19,14.73h-27.61l.2-12.22Z"/>
  </g>
</svg>