<?xml version="1.0" encoding="UTF-8"?>
<svg id="a" data-name="Layer 1" xmlns="http://www.w3.org/2000/svg" viewBox="0 0 520 520">
  <defs>
    <style>
      .b {
        fill: #fff;
      }

      .c {
        fill: #faff00;
      }
    </style>
  </defs>
  <circle cx="263.97" cy="268.02" r="234.78"/>
  <g>
    <path class="c" d="m158.68,312.87c-.05-4.5.42-10.15,1.43-15.81.72-4.02,1.19-8.1,2.34-12.03.95-3.24,1.99-6.47,3.21-9.62,1.35-3.49,2.86-6.93,4.48-10.3,3.14-6.55,7.18-12.53,11.66-18.24,6.62-8.43,14.44-15.56,23.26-21.58,4.64-3.17,9.49-6.03,14.75-8.07,3.21-1.24,6.48-2.33,9.76-3.36,3.64-1.13,7.3-2.23,11-3.12,4.41-1.05,8.9-1.76,13.47-1.65.62.02,1.27.08,1.87-.06.34-.08.83-.51.85-.81.04-1.06.13-2.2-.19-3.18-2.57-7.88-4.71-15.86-6.27-24-.85-4.45-2.03-8.85-2.88-13.3-.93-4.89-1.68-9.82-2.45-14.75-.66-4.22-1.24-8.45-1.86-12.68-.06-.44-.16-.88-.18-1.33-.18-5.45-.7-10.93-.42-16.36.31-6.05.13-12.14,1.29-18.15.96-4.98,1.36-10.07,2.41-15.02.82-3.82,2.16-7.54,3.47-11.23.98-2.77,2.14-5.49,3.47-8.11,2.58-5.07,6.62-6.35,12.31-5.92,2.99.23,4.81,1.84,6.09,4.5,2.24,4.69,4.04,9.5,5.15,14.58.82,3.74,2,7.39,2.75,11.14.66,3.31,1.1,6.68,1.38,10.05.35,4.18.42,8.39.63,12.58.1,2.05.39,4.1.35,6.14-.09,4.74-.17,9.49-.56,14.2-.36,4.43-.93,8.85-1.89,13.22-1.1,5.04-1.85,10.16-2.78,15.24-1.54,8.41-3.36,16.75-5.67,24.98-1.32,4.71-2.72,9.41-4.09,14.11-.05.17-.15.33-.2.5-.97,3.32-.96,3.28,2.52,3.72,7.23.9,14.41,2.06,21.33,4.39,8.11,2.74,15.89,6.18,23.12,10.88,6.94,4.51,13.21,9.76,18.83,15.81,5.05,5.43,9.73,11.17,13.29,17.74,1.49,2.74,3.04,5.45,4.6,8.15,2.03,3.5,3.15,7.37,4.55,11.12,1.09,2.91,2.15,5.85,2.97,8.85,1.38,5.07,2.54,10.2,2.89,15.46.28,4.28.49,8.56.59,12.85.1,4.28-.65,8.51-.97,12.77-.31,4.03-1.11,7.95-2.17,11.79-1.38,4.97-3.1,9.85-4.88,14.69-1.32,3.6-2.92,7.09-4.48,10.6-.82,1.84-2.59,2.47-4.39,1.68-.78-.34-1.39-.94-1.27-1.86.11-.86.27-1.79.68-2.54,3.12-5.75,5.51-11.8,7.54-18,1.36-4.15,2.24-8.42,3.01-12.72.78-4.31.79-8.69,1.26-13.01.55-4.97-.68-9.8-.27-14.7-1.33-5.26-1.46-10.76-3.19-15.94-1.98-5.91-3.63-11.93-6.47-17.53-3.8-7.51-8.23-14.55-13.71-20.98-3.73-4.37-7.66-8.55-12.04-12.16-4.23-3.49-8.69-6.8-13.51-9.57-6.36-3.66-12.97-6.63-19.96-8.85-3.91-1.24-7.91-1.91-11.94-2.59-6.37-1.07-12.76-1.22-19.18-.97-2.66.1-5.3.54-7.95.84-1.76.2-3.54.37-5.28.68-6.15,1.1-12.03,3.07-17.77,5.53-6.58,2.82-12.61,6.57-18.48,10.66-5.76,4.01-10.98,8.6-15.63,13.8-5.12,5.72-9.75,11.82-13.34,18.69-3.23,6.19-6.02,12.55-8.13,19.18-1.26,3.97-2.19,8.05-3.16,12.11-.35,1.46-.42,3-.55,4.5-.56,6.51-.87,13.04-.56,19.57.45,9.48,2.21,18.73,5.38,27.68,1.52,4.29,3.09,8.56,5.31,12.56.6,1.07.89,2.16.13,3.27-1.35,1.95-3.51,1.95-4.83-.05-.63-.96-1.12-2.04-1.58-3.11-1.15-2.7-2.22-5.44-3.36-8.15-2.03-4.87-3.49-9.91-4.5-15.08-.37-1.92-.57-3.87-.84-5.81-.05-.35.03-.74-.07-1.07-1.56-5.31-1.47-10.76-1.5-17.42Z"/>
    <path class="b" d="m167.54,100.86c.25-1.58.42-3.18.76-4.74.19-.85.55-1.7.99-2.46,1.45-2.55,3.18-3.38,6.04-2.78,4.3.91,8.37,2.42,12.11,4.8,6.72,4.28,12.23,9.85,17.25,15.96,6.2,7.55,11.27,15.87,16.13,24.32,5.94,10.31,11.02,21.03,15.71,31.96,2.29,5.33,4.58,10.66,6.84,16.01,1.26,2.97,2.4,5.99,2.12,9.31-.09,1.06-.32,2.1-.52,3.15-.32,1.63-1.31,2.76-2.8,3.36-2.48.98-4.94,2.12-7.52,2.71-3.21.74-6.05-.41-7.97-3.15-3.02-4.32-5.94-8.71-8.85-13.11-5.92-8.95-11.81-17.91-17.69-26.88-7.6-11.58-15.17-23.18-22.76-34.77-2.6-3.96-5.33-7.83-7.2-12.22-1.56-3.66-2.41-7.46-2.63-11.47Z"/>
    <path class="b" d="m356.75,101.22c-.06,5.09-1.59,9.76-4.07,14.05-2.68,4.63-5.69,9.08-8.63,13.56-12.8,19.5-25.62,38.99-38.45,58.47-2.65,4.03-5.38,8.01-8.06,12.02-2,2.99-4.84,3.85-8.17,3.02-2.15-.54-4.28-1.25-6.31-2.13-2.77-1.2-4.29-3.38-4.31-6.5,0-2.15-.02-4.26.83-6.32,5.44-13.11,10.68-26.32,17.16-38.96,6.15-12.02,12.73-23.81,21.1-34.48,5.27-6.72,11.03-12.92,18.13-17.74,3.65-2.48,7.66-4.16,11.97-5.13,4.23-.95,7.12.82,8.11,5.12.38,1.64.48,3.35.71,5.03Z"/>
    <path class="b" d="m218.76,205.47c-.03,3.78-.52,4.48-3.79,5.85-2.46,1.03-4.88,2.19-7.37,3.13-4.1,1.54-6.86.85-9.74-2.49-1.86-2.16-3.53-4.49-5.27-6.76-6.59-8.56-13.18-17.12-19.75-25.7-.81-1.06-1.46-2.24-2.19-3.36-1.13-1.74-.79-3.35.3-4.98,2.77-4.12,7.51-5.77,12.68-4.28,2.85.82,5.46,2.15,7.85,3.91,5.37,3.94,10.01,8.66,14.07,13.89,3.89,5,7.51,10.21,11.18,15.37,1.19,1.67,2.37,3.41,2.02,5.43Z"/>
    <path class="b" d="m305.52,206.05c-.29-2.52.87-4.47,2.16-6.28,3.53-4.94,7.07-9.88,10.76-14.71,3.48-4.56,7.39-8.73,11.86-12.36,2.44-1.98,5-3.8,7.92-4.94,1.89-.74,3.91-1.18,5.91-1.55,1.63-.31,3.22.21,4.58,1.12,1.33.89,2.62,1.88,3.75,3.01,2.34,2.33,2.48,4.2.53,6.9-1.62,2.25-3.36,4.4-5.04,6.61-6.89,9.02-13.77,18.05-20.66,27.07-.43.57-.88,1.14-1.39,1.63-2.62,2.48-5.61,3.4-9.08,1.98-2.72-1.11-5.42-2.26-8.15-3.35-2.38-.95-3.57-2.59-3.14-5.11Z"/>
    <path class="b" d="m344.61,300.6c-.23-3.29-.6-6.6-1.34-9.8-2.98-12.94-9.07-24.39-17.1-34.85-5.89-7.67-12.92-14.13-21.17-19.14-13.49-8.2-28.16-12.34-44.15-12.19-7.27-.18-13.87.79-18.94,1.95-17.29,3.95-31.97,12.43-43.7,25.86-8.65,9.9-15.7,20.82-20.5,33.11-2.68,6.87-4.37,13.96-4.15,21.43.09,2.95-.05,5.92.03,8.87.12,4.65.19,9.31.56,13.94.63,7.82,2.91,15.25,6.17,22.35,4.23,9.18,9.11,18.03,14.29,26.7,10.62,17.75,22.29,34.76,35.98,50.33,6.93,7.88,14.34,15.23,22.33,22.01,1.7,1.44,3.5,2.77,5.22,4.2.85.71,1.61.63,2.41,0,.35-.28.67-.59.99-.91,5.59-5.66,11.11-11.4,16.79-16.97,7.61-7.47,14.62-15.47,21.32-23.75,9.12-11.27,17.73-22.9,25.15-35.38,5.49-9.22,10.6-18.65,14.54-28.65,1.7-4.3,3.12-8.75,4.16-13.25,1.71-7.37,1.1-14.96,1.49-22.46.23-4.45-.08-8.95-.39-13.42Zm-120.18,37.96c-9.96-.06-19.35-8.75-18.87-20.46.35-8.64,8.1-18.46,19.07-18.46,10.88,0,19.46,9.48,19.72,19.79-.25,9.72-8.5,19.19-19.92,19.12Zm88.52-15.36c-2.25,9.23-10.31,14.59-16.83,15.16-6.68.58-12.06-1.6-16.58-6.3-3.44-3.59-4.96-7.98-5.06-13.43.43-7.42,4.31-13.16,11.18-16.88,1.54-.84,3.3-1.41,5.03-1.72,7.15-1.3,12.92,1.43,17.72,6.55,2.77,2.95,4.36,6.58,4.94,10.53.29,1.98.08,4.14-.4,6.1Z"/>
  </g>
</svg>